<svg width="872" height="532" viewBox="0 0 872 532" fill="none" xmlns="http://www.w3.org/2000/svg">
<g filter="url(#filter0_d_364_85787)">
<rect x="36" y="12" width="800" height="460" rx="12" fill="white"/>
<path d="M71.4134 51.9091V65H69.4382V51.9091H71.4134ZM76.0476 59.1705V65H74.1364V55.1818H75.9709V56.7798H76.0923C76.3182 56.2599 76.6719 55.8423 77.1534 55.527C77.6392 55.2116 78.2507 55.054 78.9879 55.054C79.657 55.054 80.2429 55.1946 80.7457 55.4759C81.2486 55.7528 81.6385 56.1662 81.9155 56.7159C82.1925 57.2656 82.331 57.9453 82.331 58.755V65H80.4197V58.9851C80.4197 58.2734 80.2344 57.7173 79.8636 57.3168C79.4929 56.9119 78.9837 56.7095 78.3359 56.7095C77.8928 56.7095 77.4986 56.8054 77.1534 56.9972C76.8125 57.1889 76.5419 57.4702 76.3416 57.8409C76.1456 58.2074 76.0476 58.6506 76.0476 59.1705ZM89.5668 55.1818V56.7159H84.0185V55.1818H89.5668ZM85.5398 65V54.044C85.5398 53.4304 85.674 52.9212 85.9425 52.5163C86.2109 52.1072 86.5668 51.8026 87.0099 51.6023C87.4531 51.3977 87.9347 51.2955 88.4545 51.2955C88.8381 51.2955 89.1662 51.3274 89.4389 51.3913C89.7116 51.451 89.9141 51.5064 90.0462 51.5575L89.5987 53.1044C89.5092 53.0788 89.3942 53.049 89.2536 53.0149C89.1129 52.9766 88.9425 52.9574 88.7422 52.9574C88.2777 52.9574 87.9453 53.0724 87.745 53.3026C87.549 53.5327 87.451 53.8651 87.451 54.2997V65H85.5398ZM95.3835 65.1982C94.4162 65.1982 93.5831 64.9915 92.8842 64.5781C92.1896 64.1605 91.6527 63.5746 91.2734 62.8203C90.8984 62.0618 90.7109 61.1733 90.7109 60.1548C90.7109 59.1491 90.8984 58.2628 91.2734 57.4957C91.6527 56.7287 92.1811 56.13 92.8587 55.6996C93.5405 55.2692 94.3374 55.054 95.2493 55.054C95.8033 55.054 96.3402 55.1456 96.8601 55.3288C97.38 55.5121 97.8466 55.7997 98.2599 56.1918C98.6733 56.5838 98.9993 57.093 99.2379 57.7195C99.4766 58.3416 99.5959 59.098 99.5959 59.9886V60.6662H91.7912V59.2344H97.723C97.723 58.7315 97.6207 58.2862 97.4162 57.8984C97.2116 57.5064 96.924 57.1974 96.5533 56.9716C96.1868 56.7457 95.7564 56.6328 95.2621 56.6328C94.7251 56.6328 94.2564 56.7649 93.8558 57.0291C93.4595 57.2891 93.1527 57.63 92.9354 58.0518C92.7223 58.4695 92.6158 58.9233 92.6158 59.4134V60.532C92.6158 61.1882 92.7308 61.7464 92.9609 62.2067C93.1953 62.6669 93.5213 63.0185 93.9389 63.2614C94.3565 63.5 94.8445 63.6193 95.4027 63.6193C95.7649 63.6193 96.0952 63.5682 96.3935 63.4659C96.6918 63.3594 96.9496 63.2017 97.1669 62.9929C97.3842 62.7841 97.5504 62.5263 97.6655 62.2195L99.4744 62.5455C99.3295 63.0781 99.0696 63.5447 98.6946 63.9453C98.3239 64.3416 97.8572 64.6506 97.2947 64.8722C96.7365 65.0895 96.0994 65.1982 95.3835 65.1982ZM105.852 65.1982C104.902 65.1982 104.084 64.983 103.398 64.5526C102.716 64.1179 102.192 63.5192 101.825 62.7564C101.459 61.9936 101.275 61.12 101.275 60.1357C101.275 59.1385 101.463 58.2585 101.838 57.4957C102.213 56.7287 102.741 56.13 103.423 55.6996C104.105 55.2692 104.908 55.054 105.833 55.054C106.579 55.054 107.243 55.1925 107.827 55.4695C108.411 55.7422 108.882 56.1257 109.24 56.62C109.602 57.1143 109.817 57.6918 109.885 58.3523H108.025C107.923 57.892 107.689 57.4957 107.322 57.1634C106.96 56.831 106.474 56.6648 105.865 56.6648C105.332 56.6648 104.866 56.8054 104.465 57.0866C104.069 57.3636 103.76 57.7599 103.538 58.2756C103.317 58.7869 103.206 59.392 103.206 60.0909C103.206 60.8068 103.314 61.4247 103.532 61.9446C103.749 62.4645 104.056 62.8672 104.452 63.1527C104.853 63.4382 105.324 63.581 105.865 63.581C106.227 63.581 106.555 63.5149 106.849 63.3828C107.148 63.2464 107.397 63.0526 107.597 62.8011C107.802 62.5497 107.944 62.2472 108.025 61.8935H109.885C109.817 62.5284 109.611 63.0952 109.265 63.5938C108.92 64.0923 108.458 64.4844 107.878 64.7699C107.303 65.0554 106.628 65.1982 105.852 65.1982ZM116.512 55.1818V56.7159H111.15V55.1818H116.512ZM112.588 52.8295H114.499V62.1172C114.499 62.4879 114.554 62.767 114.665 62.9545C114.776 63.1378 114.919 63.2635 115.093 63.3317C115.272 63.3956 115.466 63.4276 115.675 63.4276C115.828 63.4276 115.963 63.4169 116.078 63.3956C116.193 63.3743 116.282 63.3572 116.346 63.3445L116.691 64.9233C116.581 64.9659 116.423 65.0085 116.218 65.0511C116.014 65.098 115.758 65.1236 115.451 65.1278C114.949 65.1364 114.48 65.0469 114.045 64.8594C113.61 64.6719 113.259 64.3821 112.99 63.9901C112.722 63.598 112.588 63.1058 112.588 62.5135V52.8295ZM121.484 65.2173C120.862 65.2173 120.299 65.1023 119.796 64.8722C119.294 64.6378 118.895 64.299 118.601 63.8558C118.311 63.4126 118.166 62.8693 118.166 62.2259C118.166 61.6719 118.273 61.2159 118.486 60.858C118.699 60.5 118.987 60.2166 119.349 60.0078C119.711 59.799 120.116 59.6413 120.563 59.5348C121.011 59.4283 121.467 59.3473 121.931 59.2919C122.519 59.2237 122.997 59.1683 123.363 59.1257C123.73 59.0788 123.996 59.0043 124.162 58.902C124.328 58.7997 124.411 58.6335 124.411 58.4034V58.3587C124.411 57.8004 124.254 57.3679 123.938 57.0611C123.627 56.7543 123.163 56.6009 122.545 56.6009C121.901 56.6009 121.394 56.7436 121.024 57.0291C120.657 57.3104 120.404 57.6236 120.263 57.9688L118.467 57.5597C118.68 56.9631 118.991 56.4815 119.4 56.1151C119.813 55.7443 120.289 55.4759 120.825 55.3097C121.362 55.1392 121.927 55.054 122.519 55.054C122.911 55.054 123.327 55.1009 123.766 55.1946C124.209 55.2841 124.622 55.4503 125.006 55.6932C125.394 55.9361 125.711 56.2834 125.958 56.7351C126.205 57.1825 126.329 57.7642 126.329 58.4801V65H124.463V63.6577H124.386C124.262 63.9048 124.077 64.1477 123.83 64.3864C123.583 64.625 123.265 64.8232 122.877 64.9808C122.49 65.1385 122.025 65.2173 121.484 65.2173ZM121.899 63.6832C122.428 63.6832 122.879 63.5788 123.254 63.37C123.634 63.1612 123.921 62.8885 124.117 62.5518C124.318 62.2109 124.418 61.8466 124.418 61.4588V60.1932C124.35 60.2614 124.218 60.3253 124.021 60.3849C123.83 60.4403 123.61 60.4893 123.363 60.532C123.116 60.5703 122.875 60.6065 122.641 60.6406C122.406 60.6705 122.21 60.696 122.053 60.7173C121.682 60.7642 121.343 60.843 121.036 60.9538C120.734 61.0646 120.491 61.2244 120.308 61.4332C120.129 61.6378 120.039 61.9105 120.039 62.2514C120.039 62.7244 120.214 63.0824 120.563 63.3253C120.913 63.5639 121.358 63.6832 121.899 63.6832ZM132.55 65.1918C131.757 65.1918 131.05 64.9893 130.428 64.5845C129.81 64.1754 129.324 63.5937 128.971 62.8395C128.621 62.081 128.446 61.1712 128.446 60.1101C128.446 59.049 128.623 58.1413 128.977 57.3871C129.335 56.6328 129.825 56.0554 130.447 55.6548C131.069 55.2543 131.775 55.054 132.563 55.054C133.172 55.054 133.662 55.1562 134.033 55.3608C134.408 55.5611 134.698 55.7955 134.902 56.0639C135.111 56.3324 135.273 56.5689 135.388 56.7734H135.503V51.9091H137.414V65H135.548V63.4723H135.388C135.273 63.6811 135.107 63.9197 134.89 64.1882C134.676 64.4567 134.382 64.6911 134.007 64.8913C133.632 65.0916 133.147 65.1918 132.55 65.1918ZM132.972 63.5618C133.522 63.5618 133.986 63.4169 134.365 63.1271C134.749 62.8331 135.039 62.4261 135.235 61.9062C135.435 61.3864 135.535 60.7812 135.535 60.0909C135.535 59.4091 135.437 58.8125 135.241 58.3011C135.045 57.7898 134.757 57.3913 134.378 57.1058C133.999 56.8203 133.53 56.6776 132.972 56.6776C132.397 56.6776 131.917 56.8267 131.534 57.125C131.15 57.4233 130.86 57.8303 130.664 58.3459C130.473 58.8615 130.377 59.4432 130.377 60.0909C130.377 60.7472 130.475 61.3374 130.671 61.8615C130.867 62.3857 131.157 62.8011 131.54 63.108C131.928 63.4105 132.405 63.5618 132.972 63.5618ZM144.278 65.1982C143.357 65.1982 142.554 64.9872 141.868 64.5653C141.182 64.1435 140.649 63.5533 140.27 62.7947C139.891 62.0362 139.701 61.1499 139.701 60.1357C139.701 59.1172 139.891 58.2266 140.27 57.4638C140.649 56.701 141.182 56.1087 141.868 55.6868C142.554 55.2649 143.357 55.054 144.278 55.054C145.198 55.054 146.002 55.2649 146.688 55.6868C147.374 56.1087 147.906 56.701 148.286 57.4638C148.665 58.2266 148.855 59.1172 148.855 60.1357C148.855 61.1499 148.665 62.0362 148.286 62.7947C147.906 63.5533 147.374 64.1435 146.688 64.5653C146.002 64.9872 145.198 65.1982 144.278 65.1982ZM144.284 63.5938C144.881 63.5938 145.375 63.4361 145.767 63.1207C146.159 62.8054 146.449 62.3857 146.637 61.8615C146.828 61.3374 146.924 60.7599 146.924 60.1293C146.924 59.5028 146.828 58.9276 146.637 58.4034C146.449 57.875 146.159 57.451 145.767 57.1314C145.375 56.8118 144.881 56.652 144.284 56.652C143.683 56.652 143.185 56.8118 142.789 57.1314C142.396 57.451 142.105 57.875 141.913 58.4034C141.725 58.9276 141.632 59.5028 141.632 60.1293C141.632 60.7599 141.725 61.3374 141.913 61.8615C142.105 62.3857 142.396 62.8054 142.789 63.1207C143.185 63.4361 143.683 63.5938 144.284 63.5938ZM158.345 57.5788L156.613 57.8857C156.54 57.6641 156.425 57.4531 156.268 57.2528C156.114 57.0526 155.906 56.8885 155.641 56.7607C155.377 56.6328 155.047 56.5689 154.651 56.5689C154.109 56.5689 153.658 56.6903 153.295 56.9332C152.933 57.1719 152.752 57.4808 152.752 57.8601C152.752 58.1882 152.874 58.4524 153.116 58.6527C153.359 58.853 153.751 59.017 154.293 59.1449L155.852 59.5028C156.756 59.7116 157.429 60.0334 157.872 60.468C158.315 60.9027 158.537 61.4673 158.537 62.1619C158.537 62.75 158.366 63.2741 158.026 63.7344C157.689 64.1903 157.218 64.5483 156.613 64.8082C156.012 65.0682 155.315 65.1982 154.523 65.1982C153.423 65.1982 152.526 64.9638 151.832 64.495C151.137 64.022 150.711 63.3509 150.553 62.4815L152.401 62.2003C152.516 62.6818 152.752 63.0462 153.11 63.2933C153.468 63.5362 153.935 63.6577 154.51 63.6577C155.136 63.6577 155.637 63.5277 156.012 63.2678C156.387 63.0036 156.575 62.6818 156.575 62.3026C156.575 61.9957 156.46 61.7379 156.229 61.5291C156.004 61.3203 155.656 61.1626 155.188 61.0561L153.526 60.6918C152.609 60.483 151.932 60.1506 151.493 59.6946C151.058 59.2386 150.841 58.6612 150.841 57.9624C150.841 57.3828 151.003 56.8757 151.327 56.4411C151.651 56.0064 152.098 55.6676 152.669 55.4247C153.24 55.1776 153.894 55.054 154.631 55.054C155.692 55.054 156.528 55.2841 157.137 55.7443C157.746 56.2003 158.149 56.8118 158.345 57.5788ZM168.259 65.2173C167.637 65.2173 167.075 65.1023 166.572 64.8722C166.069 64.6378 165.67 64.299 165.376 63.8558C165.087 63.4126 164.942 62.8693 164.942 62.2259C164.942 61.6719 165.048 61.2159 165.261 60.858C165.474 60.5 165.762 60.2166 166.124 60.0078C166.487 59.799 166.891 59.6413 167.339 59.5348C167.786 59.4283 168.242 59.3473 168.707 59.2919C169.295 59.2237 169.772 59.1683 170.138 59.1257C170.505 59.0788 170.771 59.0043 170.938 58.902C171.104 58.7997 171.187 58.6335 171.187 58.4034V58.3587C171.187 57.8004 171.029 57.3679 170.714 57.0611C170.403 56.7543 169.938 56.6009 169.32 56.6009C168.677 56.6009 168.17 56.7436 167.799 57.0291C167.433 57.3104 167.179 57.6236 167.038 57.9688L165.242 57.5597C165.455 56.9631 165.766 56.4815 166.175 56.1151C166.589 55.7443 167.064 55.4759 167.601 55.3097C168.138 55.1392 168.702 55.054 169.295 55.054C169.687 55.054 170.102 55.1009 170.541 55.1946C170.984 55.2841 171.398 55.4503 171.781 55.6932C172.169 55.9361 172.487 56.2834 172.734 56.7351C172.981 57.1825 173.104 57.7642 173.104 58.4801V65H171.238V63.6577H171.161C171.038 63.9048 170.852 64.1477 170.605 64.3864C170.358 64.625 170.04 64.8232 169.653 64.9808C169.265 65.1385 168.8 65.2173 168.259 65.2173ZM168.675 63.6832C169.203 63.6832 169.655 63.5788 170.03 63.37C170.409 63.1612 170.697 62.8885 170.893 62.5518C171.093 62.2109 171.193 61.8466 171.193 61.4588V60.1932C171.125 60.2614 170.993 60.3253 170.797 60.3849C170.605 60.4403 170.386 60.4893 170.138 60.532C169.891 60.5703 169.651 60.6065 169.416 60.6406C169.182 60.6705 168.986 60.696 168.828 60.7173C168.457 60.7642 168.119 60.843 167.812 60.9538C167.509 61.0646 167.266 61.2244 167.083 61.4332C166.904 61.6378 166.815 61.9105 166.815 62.2514C166.815 62.7244 166.989 63.0824 167.339 63.3253C167.688 63.5639 168.134 63.6832 168.675 63.6832ZM179.786 65.1982C178.865 65.1982 178.062 64.9872 177.376 64.5653C176.69 64.1435 176.157 63.5533 175.778 62.7947C175.399 62.0362 175.209 61.1499 175.209 60.1357C175.209 59.1172 175.399 58.2266 175.778 57.4638C176.157 56.701 176.69 56.1087 177.376 55.6868C178.062 55.2649 178.865 55.054 179.786 55.054C180.706 55.054 181.509 55.2649 182.195 55.6868C182.882 56.1087 183.414 56.701 183.794 57.4638C184.173 58.2266 184.362 59.1172 184.362 60.1357C184.362 61.1499 184.173 62.0362 183.794 62.7947C183.414 63.5533 182.882 64.1435 182.195 64.5653C181.509 64.9872 180.706 65.1982 179.786 65.1982ZM179.792 63.5938C180.389 63.5938 180.883 63.4361 181.275 63.1207C181.667 62.8054 181.957 62.3857 182.144 61.8615C182.336 61.3374 182.432 60.7599 182.432 60.1293C182.432 59.5028 182.336 58.9276 182.144 58.4034C181.957 57.875 181.667 57.451 181.275 57.1314C180.883 56.8118 180.389 56.652 179.792 56.652C179.191 56.652 178.693 56.8118 178.296 57.1314C177.904 57.451 177.612 57.875 177.421 58.4034C177.233 58.9276 177.139 59.5028 177.139 60.1293C177.139 60.7599 177.233 61.3374 177.421 61.8615C177.612 62.3857 177.904 62.8054 178.296 63.1207C178.693 63.4361 179.191 63.5938 179.792 63.5938ZM193.171 51.9091V65H191.259V51.9091H193.171ZM199.877 65.1982C198.957 65.1982 198.154 64.9872 197.468 64.5653C196.782 64.1435 196.249 63.5533 195.87 62.7947C195.49 62.0362 195.301 61.1499 195.301 60.1357C195.301 59.1172 195.49 58.2266 195.87 57.4638C196.249 56.701 196.782 56.1087 197.468 55.6868C198.154 55.2649 198.957 55.054 199.877 55.054C200.798 55.054 201.601 55.2649 202.287 55.6868C202.973 56.1087 203.506 56.701 203.885 57.4638C204.265 58.2266 204.454 59.1172 204.454 60.1357C204.454 61.1499 204.265 62.0362 203.885 62.7947C203.506 63.5533 202.973 64.1435 202.287 64.5653C201.601 64.9872 200.798 65.1982 199.877 65.1982ZM199.884 63.5938C200.48 63.5938 200.975 63.4361 201.367 63.1207C201.759 62.8054 202.049 62.3857 202.236 61.8615C202.428 61.3374 202.524 60.7599 202.524 60.1293C202.524 59.5028 202.428 58.9276 202.236 58.4034C202.049 57.875 201.759 57.451 201.367 57.1314C200.975 56.8118 200.48 56.652 199.884 56.652C199.283 56.652 198.784 56.8118 198.388 57.1314C197.996 57.451 197.704 57.875 197.512 58.4034C197.325 58.9276 197.231 59.5028 197.231 60.1293C197.231 60.7599 197.325 61.3374 197.512 61.8615C197.704 62.3857 197.996 62.8054 198.388 63.1207C198.784 63.4361 199.283 63.5938 199.884 63.5938ZM208.499 59.1705V65H206.588V55.1818H208.422V56.7798H208.544C208.769 56.2599 209.123 55.8423 209.605 55.527C210.09 55.2116 210.702 55.054 211.439 55.054C212.108 55.054 212.694 55.1946 213.197 55.4759C213.7 55.7528 214.09 56.1662 214.367 56.7159C214.644 57.2656 214.782 57.9453 214.782 58.755V65H212.871V58.9851C212.871 58.2734 212.686 57.7173 212.315 57.3168C211.944 56.9119 211.435 56.7095 210.787 56.7095C210.344 56.7095 209.95 56.8054 209.605 56.9972C209.264 57.1889 208.993 57.4702 208.793 57.8409C208.597 58.2074 208.499 58.6506 208.499 59.1705ZM221.462 68.8864C220.682 68.8864 220.011 68.7841 219.448 68.5795C218.89 68.375 218.434 68.1044 218.08 67.7678C217.727 67.4311 217.463 67.0625 217.288 66.6619L218.931 65.9844C219.046 66.1719 219.199 66.37 219.391 66.5788C219.587 66.7919 219.851 66.973 220.183 67.1222C220.52 67.2713 220.953 67.3459 221.481 67.3459C222.205 67.3459 222.804 67.169 223.277 66.8153C223.75 66.4659 223.987 65.9077 223.987 65.1406V63.2102H223.865C223.75 63.419 223.584 63.6513 223.367 63.907C223.154 64.1626 222.86 64.3842 222.485 64.5717C222.11 64.7592 221.622 64.853 221.021 64.853C220.245 64.853 219.546 64.6719 218.924 64.3097C218.306 63.9432 217.816 63.4041 217.454 62.6925C217.096 61.9766 216.917 61.0966 216.917 60.0526C216.917 59.0085 217.094 58.1136 217.448 57.3679C217.806 56.6222 218.296 56.0511 218.918 55.6548C219.54 55.2543 220.245 55.054 221.034 55.054C221.643 55.054 222.135 55.1562 222.51 55.3608C222.885 55.5611 223.177 55.7955 223.386 56.0639C223.599 56.3324 223.763 56.5689 223.878 56.7734H224.019V55.1818H225.892V65.2173C225.892 66.0611 225.695 66.7536 225.303 67.2947C224.911 67.8359 224.381 68.2365 223.712 68.4964C223.047 68.7564 222.297 68.8864 221.462 68.8864ZM221.443 63.2678C221.992 63.2678 222.457 63.1399 222.836 62.8842C223.22 62.6243 223.509 62.2536 223.705 61.772C223.906 61.2862 224.006 60.7045 224.006 60.027C224.006 59.3665 223.908 58.7848 223.712 58.282C223.516 57.7791 223.228 57.3871 222.849 57.1058C222.47 56.8203 222.001 56.6776 221.443 56.6776C220.867 56.6776 220.388 56.8267 220.004 57.125C219.621 57.419 219.331 57.8196 219.135 58.3267C218.943 58.8338 218.847 59.4006 218.847 60.027C218.847 60.6705 218.945 61.2351 219.142 61.7209C219.338 62.2067 219.627 62.5859 220.011 62.8587C220.399 63.1314 220.876 63.2678 221.443 63.2678ZM232.59 65.1982C231.67 65.1982 230.867 64.9872 230.181 64.5653C229.494 64.1435 228.962 63.5533 228.583 62.7947C228.203 62.0362 228.014 61.1499 228.014 60.1357C228.014 59.1172 228.203 58.2266 228.583 57.4638C228.962 56.701 229.494 56.1087 230.181 55.6868C230.867 55.2649 231.67 55.054 232.59 55.054C233.511 55.054 234.314 55.2649 235 55.6868C235.686 56.1087 236.219 56.701 236.598 57.4638C236.977 58.2266 237.167 59.1172 237.167 60.1357C237.167 61.1499 236.977 62.0362 236.598 62.7947C236.219 63.5533 235.686 64.1435 235 64.5653C234.314 64.9872 233.511 65.1982 232.59 65.1982ZM232.597 63.5938C233.193 63.5938 233.688 63.4361 234.08 63.1207C234.472 62.8054 234.762 62.3857 234.949 61.8615C235.141 61.3374 235.237 60.7599 235.237 60.1293C235.237 59.5028 235.141 58.9276 234.949 58.4034C234.762 57.875 234.472 57.451 234.08 57.1314C233.688 56.8118 233.193 56.652 232.597 56.652C231.996 56.652 231.497 56.8118 231.101 57.1314C230.709 57.451 230.417 57.875 230.225 58.4034C230.038 58.9276 229.944 59.5028 229.944 60.1293C229.944 60.7599 230.038 61.3374 230.225 61.8615C230.417 62.3857 230.709 62.8054 231.101 63.1207C231.497 63.4361 231.996 63.5938 232.597 63.5938ZM247.74 65.1918C246.947 65.1918 246.24 64.9893 245.617 64.5845C244.999 64.1754 244.514 63.5937 244.16 62.8395C243.811 62.081 243.636 61.1712 243.636 60.1101C243.636 59.049 243.813 58.1413 244.166 57.3871C244.524 56.6328 245.014 56.0554 245.637 55.6548C246.259 55.2543 246.964 55.054 247.752 55.054C248.362 55.054 248.852 55.1562 249.222 55.3608C249.597 55.5611 249.887 55.7955 250.092 56.0639C250.301 56.3324 250.463 56.5689 250.578 56.7734H250.693V51.9091H252.604V65H250.737V63.4723H250.578C250.463 63.6811 250.296 63.9197 250.079 64.1882C249.866 64.4567 249.572 64.6911 249.197 64.8913C248.822 65.0916 248.336 65.1918 247.74 65.1918ZM248.161 63.5618C248.711 63.5618 249.176 63.4169 249.555 63.1271C249.938 62.8331 250.228 62.4261 250.424 61.9062C250.624 61.3864 250.725 60.7812 250.725 60.0909C250.725 59.4091 250.627 58.8125 250.431 58.3011C250.235 57.7898 249.947 57.3913 249.568 57.1058C249.188 56.8203 248.72 56.6776 248.161 56.6776C247.586 56.6776 247.107 56.8267 246.723 57.125C246.34 57.4233 246.05 57.8303 245.854 58.3459C245.662 58.8615 245.566 59.4432 245.566 60.0909C245.566 60.7472 245.664 61.3374 245.86 61.8615C246.056 62.3857 246.346 62.8011 246.73 63.108C247.117 63.4105 247.595 63.5618 248.161 63.5618ZM259.467 65.1982C258.547 65.1982 257.744 64.9872 257.058 64.5653C256.371 64.1435 255.839 63.5533 255.46 62.7947C255.08 62.0362 254.891 61.1499 254.891 60.1357C254.891 59.1172 255.08 58.2266 255.46 57.4638C255.839 56.701 256.371 56.1087 257.058 55.6868C257.744 55.2649 258.547 55.054 259.467 55.054C260.388 55.054 261.191 55.2649 261.877 55.6868C262.563 56.1087 263.096 56.701 263.475 57.4638C263.854 58.2266 264.044 59.1172 264.044 60.1357C264.044 61.1499 263.854 62.0362 263.475 62.7947C263.096 63.5533 262.563 64.1435 261.877 64.5653C261.191 64.9872 260.388 65.1982 259.467 65.1982ZM259.474 63.5938C260.07 63.5938 260.565 63.4361 260.957 63.1207C261.349 62.8054 261.638 62.3857 261.826 61.8615C262.018 61.3374 262.114 60.7599 262.114 60.1293C262.114 59.5028 262.018 58.9276 261.826 58.4034C261.638 57.875 261.349 57.451 260.957 57.1314C260.565 56.8118 260.07 56.652 259.474 56.652C258.873 56.652 258.374 56.8118 257.978 57.1314C257.586 57.451 257.294 57.875 257.102 58.4034C256.915 58.9276 256.821 59.5028 256.821 60.1293C256.821 60.7599 256.915 61.3374 257.102 61.8615C257.294 62.3857 257.586 62.8054 257.978 63.1207C258.374 63.4361 258.873 63.5938 259.474 63.5938ZM273.798 65.2173C273.176 65.2173 272.614 65.1023 272.111 64.8722C271.608 64.6378 271.21 64.299 270.915 63.8558C270.626 63.4126 270.481 62.8693 270.481 62.2259C270.481 61.6719 270.587 61.2159 270.8 60.858C271.013 60.5 271.301 60.2166 271.663 60.0078C272.026 59.799 272.43 59.6413 272.878 59.5348C273.325 59.4283 273.781 59.3473 274.246 59.2919C274.834 59.2237 275.311 59.1683 275.678 59.1257C276.044 59.0788 276.31 59.0043 276.477 58.902C276.643 58.7997 276.726 58.6335 276.726 58.4034V58.3587C276.726 57.8004 276.568 57.3679 276.253 57.0611C275.942 56.7543 275.477 56.6009 274.859 56.6009C274.216 56.6009 273.709 56.7436 273.338 57.0291C272.972 57.3104 272.718 57.6236 272.577 57.9688L270.781 57.5597C270.994 56.9631 271.305 56.4815 271.714 56.1151C272.128 55.7443 272.603 55.4759 273.14 55.3097C273.677 55.1392 274.241 55.054 274.834 55.054C275.226 55.054 275.641 55.1009 276.08 55.1946C276.523 55.2841 276.937 55.4503 277.32 55.6932C277.708 55.9361 278.026 56.2834 278.273 56.7351C278.52 57.1825 278.643 57.7642 278.643 58.4801V65H276.777V63.6577H276.7C276.577 63.9048 276.391 64.1477 276.144 64.3864C275.897 64.625 275.58 64.8232 275.192 64.9808C274.804 65.1385 274.339 65.2173 273.798 65.2173ZM274.214 63.6832C274.742 63.6832 275.194 63.5788 275.569 63.37C275.948 63.1612 276.236 62.8885 276.432 62.5518C276.632 62.2109 276.732 61.8466 276.732 61.4588V60.1932C276.664 60.2614 276.532 60.3253 276.336 60.3849C276.144 60.4403 275.925 60.4893 275.678 60.532C275.43 60.5703 275.19 60.6065 274.955 60.6406C274.721 60.6705 274.525 60.696 274.367 60.7173C273.996 60.7642 273.658 60.843 273.351 60.9538C273.048 61.0646 272.805 61.2244 272.622 61.4332C272.443 61.6378 272.354 61.9105 272.354 62.2514C272.354 62.7244 272.528 63.0824 272.878 63.3253C273.227 63.5639 273.673 63.6832 274.214 63.6832ZM283.1 59.1705V65H281.189V55.1818H283.024V56.7798H283.145C283.371 56.2599 283.725 55.8423 284.206 55.527C284.692 55.2116 285.303 55.054 286.041 55.054C286.71 55.054 287.296 55.1946 287.798 55.4759C288.301 55.7528 288.691 56.1662 288.968 56.7159C289.245 57.2656 289.384 57.9453 289.384 58.755V65H287.472V58.9851C287.472 58.2734 287.287 57.7173 286.916 57.3168C286.546 56.9119 286.036 56.7095 285.389 56.7095C284.945 56.7095 284.551 56.8054 284.206 56.9972C283.865 57.1889 283.595 57.4702 283.394 57.8409C283.198 58.2074 283.1 58.6506 283.1 59.1705ZM296.083 65.1982C295.162 65.1982 294.359 64.9872 293.673 64.5653C292.987 64.1435 292.454 63.5533 292.075 62.7947C291.695 62.0362 291.506 61.1499 291.506 60.1357C291.506 59.1172 291.695 58.2266 292.075 57.4638C292.454 56.701 292.987 56.1087 293.673 55.6868C294.359 55.2649 295.162 55.054 296.083 55.054C297.003 55.054 297.806 55.2649 298.492 55.6868C299.178 56.1087 299.711 56.701 300.09 57.4638C300.47 58.2266 300.659 59.1172 300.659 60.1357C300.659 61.1499 300.47 62.0362 300.09 62.7947C299.711 63.5533 299.178 64.1435 298.492 64.5653C297.806 64.9872 297.003 65.1982 296.083 65.1982ZM296.089 63.5938C296.686 63.5938 297.18 63.4361 297.572 63.1207C297.964 62.8054 298.254 62.3857 298.441 61.8615C298.633 61.3374 298.729 60.7599 298.729 60.1293C298.729 59.5028 298.633 58.9276 298.441 58.4034C298.254 57.875 297.964 57.451 297.572 57.1314C297.18 56.8118 296.686 56.652 296.089 56.652C295.488 56.652 294.99 56.8118 294.593 57.1314C294.201 57.451 293.909 57.875 293.718 58.4034C293.53 58.9276 293.436 59.5028 293.436 60.1293C293.436 60.7599 293.53 61.3374 293.718 61.8615C293.909 62.3857 294.201 62.8054 294.593 63.1207C294.99 63.4361 295.488 63.5938 296.089 63.5938Z" fill="#101828"/>
<line x1="68.5" y1="82.5" x2="803.5" y2="82.5" stroke="#F2F4F7" stroke-linecap="round"/>
<line x1="68.5" y1="150.6" x2="803.5" y2="150.6" stroke="#F2F4F7" stroke-linecap="round"/>
<line x1="68.5" y1="216.2" x2="803.5" y2="216.2" stroke="#F2F4F7" stroke-linecap="round"/>
<line x1="68.5" y1="281.8" x2="803.5" y2="281.8" stroke="#F2F4F7" stroke-linecap="round"/>
<line x1="68.5" y1="347.4" x2="803.5" y2="347.4" stroke="#F2F4F7" stroke-linecap="round"/>
<line x1="68.5" y1="413" x2="803.5" y2="413" stroke="#F2F4F7" stroke-linecap="round"/>
<path d="M96.7493 426.273H97.8061V432.511C97.8061 433.068 97.7038 433.541 97.4993 433.93C97.2947 434.32 97.0064 434.615 96.6342 434.817C96.2621 435.018 95.8232 435.119 95.3175 435.119C94.8402 435.119 94.4155 435.033 94.0433 434.859C93.6712 434.683 93.3786 434.433 93.1655 434.109C92.9524 433.786 92.8459 433.401 92.8459 432.955H93.8857C93.8857 433.202 93.9467 433.418 94.0689 433.602C94.1939 433.784 94.3643 433.926 94.5803 434.028C94.7962 434.131 95.0419 434.182 95.3175 434.182C95.6214 434.182 95.88 434.118 96.093 433.99C96.3061 433.862 96.468 433.675 96.5788 433.428C96.6925 433.178 96.7493 432.872 96.7493 432.511V426.273ZM101.714 435.153C101.299 435.153 100.923 435.075 100.585 434.919C100.246 434.76 99.978 434.531 99.7791 434.233C99.5803 433.932 99.4808 433.568 99.4808 433.142C99.4808 432.767 99.5547 432.463 99.7024 432.23C99.8501 431.994 100.048 431.81 100.295 431.676C100.542 431.543 100.815 431.443 101.113 431.378C101.414 431.31 101.717 431.256 102.021 431.216C102.418 431.165 102.741 431.126 102.988 431.101C103.238 431.072 103.42 431.026 103.533 430.96C103.65 430.895 103.708 430.781 103.708 430.619V430.585C103.708 430.165 103.593 429.838 103.363 429.605C103.136 429.372 102.79 429.256 102.327 429.256C101.847 429.256 101.471 429.361 101.198 429.571C100.925 429.781 100.734 430.006 100.623 430.244L99.6683 429.903C99.8388 429.506 100.066 429.196 100.35 428.974C100.637 428.75 100.95 428.594 101.288 428.506C101.629 428.415 101.964 428.369 102.293 428.369C102.504 428.369 102.745 428.395 103.018 428.446C103.293 428.494 103.559 428.595 103.815 428.749C104.073 428.902 104.288 429.134 104.458 429.443C104.629 429.753 104.714 430.168 104.714 430.688V435H103.708V434.114H103.657C103.589 434.256 103.475 434.408 103.316 434.57C103.157 434.732 102.945 434.869 102.681 434.983C102.417 435.097 102.094 435.153 101.714 435.153ZM101.867 434.25C102.265 434.25 102.6 434.172 102.873 434.016C103.148 433.859 103.356 433.658 103.495 433.411C103.637 433.163 103.708 432.903 103.708 432.631V431.71C103.665 431.761 103.572 431.808 103.427 431.851C103.285 431.891 103.12 431.926 102.933 431.957C102.748 431.986 102.567 432.011 102.391 432.034C102.218 432.054 102.077 432.071 101.969 432.085C101.708 432.119 101.464 432.175 101.237 432.251C101.012 432.325 100.83 432.437 100.691 432.588C100.555 432.736 100.487 432.937 100.487 433.193C100.487 433.543 100.616 433.807 100.874 433.986C101.136 434.162 101.467 434.25 101.867 434.25ZM107.555 431.062V435H106.549V428.455H107.521V429.477H107.606C107.76 429.145 107.993 428.878 108.305 428.676C108.618 428.472 109.021 428.369 109.515 428.369C109.958 428.369 110.346 428.46 110.679 428.642C111.011 428.821 111.27 429.094 111.454 429.46C111.639 429.824 111.731 430.284 111.731 430.841V435H110.725V430.909C110.725 430.395 110.592 429.994 110.325 429.707C110.058 429.418 109.691 429.273 109.225 429.273C108.904 429.273 108.618 429.342 108.365 429.482C108.115 429.621 107.917 429.824 107.772 430.091C107.627 430.358 107.555 430.682 107.555 431.062Z" fill="#475467"/>
<path d="M153.148 435V426.273H158.381V427.21H154.204V430.159H157.989V431.097H154.204V435H153.148ZM162.318 435.136C161.687 435.136 161.143 434.997 160.686 434.719C160.231 434.438 159.881 434.045 159.633 433.543C159.389 433.037 159.267 432.449 159.267 431.778C159.267 431.108 159.389 430.517 159.633 430.006C159.881 429.491 160.224 429.091 160.665 428.804C161.108 428.514 161.625 428.369 162.216 428.369C162.557 428.369 162.893 428.426 163.226 428.54C163.558 428.653 163.861 428.838 164.133 429.094C164.406 429.347 164.623 429.682 164.785 430.099C164.947 430.517 165.028 431.031 165.028 431.642V432.068H159.983V431.199H164.006C164.006 430.83 163.932 430.5 163.784 430.21C163.639 429.92 163.432 429.692 163.162 429.524C162.895 429.357 162.579 429.273 162.216 429.273C161.815 429.273 161.469 429.372 161.176 429.571C160.886 429.767 160.663 430.023 160.507 430.338C160.351 430.653 160.273 430.991 160.273 431.352V431.932C160.273 432.426 160.358 432.845 160.528 433.189C160.702 433.53 160.942 433.79 161.248 433.969C161.555 434.145 161.912 434.233 162.318 434.233C162.582 434.233 162.821 434.196 163.034 434.122C163.25 434.045 163.436 433.932 163.592 433.781C163.748 433.628 163.869 433.437 163.954 433.21L164.926 433.483C164.824 433.812 164.652 434.102 164.41 434.352C164.169 434.599 163.871 434.793 163.516 434.932C163.16 435.068 162.761 435.136 162.318 435.136ZM166.695 435V426.273H167.7V429.494H167.785C167.859 429.381 167.962 429.236 168.092 429.06C168.226 428.881 168.416 428.722 168.663 428.582C168.913 428.44 169.251 428.369 169.677 428.369C170.229 428.369 170.714 428.507 171.135 428.783C171.555 429.058 171.883 429.449 172.119 429.955C172.355 430.46 172.473 431.057 172.473 431.744C172.473 432.438 172.355 433.038 172.119 433.547C171.883 434.053 171.557 434.445 171.139 434.723C170.722 434.999 170.24 435.136 169.695 435.136C169.274 435.136 168.937 435.067 168.685 434.928C168.432 434.786 168.237 434.625 168.101 434.446C167.964 434.264 167.859 434.114 167.785 433.994H167.666V435H166.695ZM167.683 431.727C167.683 432.222 167.756 432.658 167.9 433.036C168.045 433.411 168.257 433.705 168.535 433.918C168.814 434.128 169.155 434.233 169.558 434.233C169.979 434.233 170.329 434.122 170.611 433.901C170.895 433.676 171.108 433.375 171.25 432.997C171.395 432.616 171.467 432.193 171.467 431.727C171.467 431.267 171.396 430.852 171.254 430.483C171.115 430.111 170.903 429.817 170.619 429.601C170.338 429.382 169.984 429.273 169.558 429.273C169.149 429.273 168.805 429.376 168.527 429.584C168.248 429.788 168.038 430.075 167.896 430.445C167.754 430.811 167.683 431.239 167.683 431.727Z" fill="#475467"/>
<path d="M213.287 426.273H214.549L217.515 433.517H217.617L220.583 426.273H221.844V435H220.855V428.369H220.77L218.043 435H217.088L214.361 428.369H214.276V435H213.287V426.273ZM225.753 435.153C225.338 435.153 224.962 435.075 224.624 434.919C224.286 434.76 224.017 434.531 223.818 434.233C223.619 433.932 223.52 433.568 223.52 433.142C223.52 432.767 223.594 432.463 223.741 432.23C223.889 431.994 224.087 431.81 224.334 431.676C224.581 431.543 224.854 431.443 225.152 431.378C225.453 431.31 225.756 431.256 226.06 431.216C226.457 431.165 226.78 431.126 227.027 431.101C227.277 431.072 227.459 431.026 227.572 430.96C227.689 430.895 227.747 430.781 227.747 430.619V430.585C227.747 430.165 227.632 429.838 227.402 429.605C227.175 429.372 226.83 429.256 226.366 429.256C225.886 429.256 225.51 429.361 225.237 429.571C224.964 429.781 224.773 430.006 224.662 430.244L223.707 429.903C223.878 429.506 224.105 429.196 224.389 428.974C224.676 428.75 224.989 428.594 225.327 428.506C225.668 428.415 226.003 428.369 226.332 428.369C226.543 428.369 226.784 428.395 227.057 428.446C227.332 428.494 227.598 428.595 227.854 428.749C228.112 428.902 228.327 429.134 228.497 429.443C228.668 429.753 228.753 430.168 228.753 430.688V435H227.747V434.114H227.696C227.628 434.256 227.514 434.408 227.355 434.57C227.196 434.732 226.984 434.869 226.72 434.983C226.456 435.097 226.134 435.153 225.753 435.153ZM225.906 434.25C226.304 434.25 226.639 434.172 226.912 434.016C227.188 433.859 227.395 433.658 227.534 433.411C227.676 433.163 227.747 432.903 227.747 432.631V431.71C227.705 431.761 227.611 431.808 227.466 431.851C227.324 431.891 227.159 431.926 226.972 431.957C226.787 431.986 226.607 432.011 226.43 432.034C226.257 432.054 226.116 432.071 226.009 432.085C225.747 432.119 225.503 432.175 225.276 432.251C225.051 432.325 224.869 432.437 224.73 432.588C224.594 432.736 224.526 432.937 224.526 433.193C224.526 433.543 224.655 433.807 224.913 433.986C225.175 434.162 225.506 434.25 225.906 434.25ZM230.588 435V428.455H231.56V429.443H231.628C231.748 429.119 231.963 428.857 232.276 428.655C232.588 428.453 232.941 428.352 233.333 428.352C233.407 428.352 233.499 428.354 233.61 428.357C233.721 428.359 233.804 428.364 233.861 428.369V429.392C233.827 429.384 233.749 429.371 233.627 429.354C233.507 429.334 233.381 429.324 233.248 429.324C232.929 429.324 232.645 429.391 232.395 429.524C232.148 429.655 231.952 429.837 231.807 430.07C231.665 430.3 231.594 430.562 231.594 430.858V435H230.588Z" fill="#475467"/>
<path d="M274.744 435H273.636L276.841 426.273H277.932L281.136 435H280.028L277.42 427.653H277.352L274.744 435ZM275.153 431.591H279.619V432.528H275.153V431.591ZM282.359 437.455V428.455H283.331V429.494H283.45C283.524 429.381 283.626 429.236 283.757 429.06C283.891 428.881 284.081 428.722 284.328 428.582C284.578 428.44 284.916 428.369 285.342 428.369C285.894 428.369 286.379 428.507 286.8 428.783C287.22 429.058 287.548 429.449 287.784 429.955C288.02 430.46 288.138 431.057 288.138 431.744C288.138 432.438 288.02 433.038 287.784 433.547C287.548 434.053 287.222 434.445 286.804 434.723C286.386 434.999 285.905 435.136 285.359 435.136C284.939 435.136 284.602 435.067 284.349 434.928C284.097 434.786 283.902 434.625 283.766 434.446C283.629 434.264 283.524 434.114 283.45 433.994H283.365V437.455H282.359ZM283.348 431.727C283.348 432.222 283.42 432.658 283.565 433.036C283.71 433.411 283.922 433.705 284.2 433.918C284.479 434.128 284.82 434.233 285.223 434.233C285.644 434.233 285.994 434.122 286.276 433.901C286.56 433.676 286.773 433.375 286.915 432.997C287.06 432.616 287.132 432.193 287.132 431.727C287.132 431.267 287.061 430.852 286.919 430.483C286.78 430.111 286.568 429.817 286.284 429.601C286.003 429.382 285.649 429.273 285.223 429.273C284.814 429.273 284.47 429.376 284.192 429.584C283.913 429.788 283.703 430.075 283.561 430.445C283.419 430.811 283.348 431.239 283.348 431.727ZM289.672 435V428.455H290.644V429.443H290.712C290.831 429.119 291.047 428.857 291.359 428.655C291.672 428.453 292.024 428.352 292.416 428.352C292.49 428.352 292.582 428.354 292.693 428.357C292.804 428.359 292.888 428.364 292.945 428.369V429.392C292.911 429.384 292.832 429.371 292.71 429.354C292.591 429.334 292.465 429.324 292.331 429.324C292.013 429.324 291.729 429.391 291.479 429.524C291.232 429.655 291.036 429.837 290.891 430.07C290.749 430.3 290.678 430.562 290.678 430.858V435H289.672Z" fill="#475467"/>
<path d="M333.479 426.273H334.741L337.706 433.517H337.809L340.775 426.273H342.036V435H341.047V428.369H340.962L338.235 435H337.28L334.553 428.369H334.468V435H333.479V426.273ZM345.945 435.153C345.53 435.153 345.154 435.075 344.815 434.919C344.477 434.76 344.209 434.531 344.01 434.233C343.811 433.932 343.712 433.568 343.712 433.142C343.712 432.767 343.786 432.463 343.933 432.23C344.081 431.994 344.279 431.81 344.526 431.676C344.773 431.543 345.046 431.443 345.344 431.378C345.645 431.31 345.948 431.256 346.252 431.216C346.649 431.165 346.972 431.126 347.219 431.101C347.469 431.072 347.651 431.026 347.764 430.96C347.881 430.895 347.939 430.781 347.939 430.619V430.585C347.939 430.165 347.824 429.838 347.594 429.605C347.367 429.372 347.021 429.256 346.558 429.256C346.078 429.256 345.702 429.361 345.429 429.571C345.156 429.781 344.965 430.006 344.854 430.244L343.899 429.903C344.07 429.506 344.297 429.196 344.581 428.974C344.868 428.75 345.181 428.594 345.519 428.506C345.86 428.415 346.195 428.369 346.524 428.369C346.735 428.369 346.976 428.395 347.249 428.446C347.524 428.494 347.79 428.595 348.046 428.749C348.304 428.902 348.519 429.134 348.689 429.443C348.86 429.753 348.945 430.168 348.945 430.688V435H347.939V434.114H347.888C347.82 434.256 347.706 434.408 347.547 434.57C347.388 434.732 347.176 434.869 346.912 434.983C346.648 435.097 346.325 435.153 345.945 435.153ZM346.098 434.25C346.496 434.25 346.831 434.172 347.104 434.016C347.379 433.859 347.587 433.658 347.726 433.411C347.868 433.163 347.939 432.903 347.939 432.631V431.71C347.896 431.761 347.803 431.808 347.658 431.851C347.516 431.891 347.351 431.926 347.163 431.957C346.979 431.986 346.798 432.011 346.622 432.034C346.449 432.054 346.308 432.071 346.2 432.085C345.939 432.119 345.695 432.175 345.467 432.251C345.243 432.325 345.061 432.437 344.922 432.588C344.786 432.736 344.717 432.937 344.717 433.193C344.717 433.543 344.847 433.807 345.105 433.986C345.367 434.162 345.698 434.25 346.098 434.25ZM351.194 437.455C351.023 437.455 350.871 437.44 350.738 437.412C350.604 437.386 350.512 437.361 350.461 437.335L350.716 436.449C350.961 436.511 351.177 436.534 351.364 436.517C351.552 436.5 351.718 436.416 351.863 436.266C352.01 436.118 352.145 435.878 352.268 435.545L352.455 435.034L350.035 428.455H351.125L352.932 433.67H353L354.807 428.455H355.898L353.12 435.955C352.995 436.293 352.84 436.572 352.655 436.794C352.471 437.018 352.256 437.185 352.012 437.293C351.77 437.401 351.498 437.455 351.194 437.455Z" fill="#475467"/>
<path d="M400.098 426.273H401.155V432.511C401.155 433.068 401.053 433.541 400.848 433.93C400.644 434.32 400.356 434.615 399.983 434.817C399.611 435.018 399.172 435.119 398.667 435.119C398.189 435.119 397.765 435.033 397.392 434.859C397.02 434.683 396.728 434.433 396.515 434.109C396.302 433.786 396.195 433.401 396.195 432.955H397.235C397.235 433.202 397.296 433.418 397.418 433.602C397.543 433.784 397.713 433.926 397.929 434.028C398.145 434.131 398.391 434.182 398.667 434.182C398.971 434.182 399.229 434.118 399.442 433.99C399.655 433.862 399.817 433.675 399.928 433.428C400.042 433.178 400.098 432.872 400.098 432.511V426.273ZM407.262 432.324V428.455H408.267V435H407.262V433.892H407.194C407.04 434.224 406.802 434.507 406.478 434.74C406.154 434.97 405.745 435.085 405.25 435.085C404.841 435.085 404.478 434.996 404.159 434.817C403.841 434.635 403.591 434.362 403.409 433.999C403.228 433.632 403.137 433.17 403.137 432.614V428.455H404.142V432.545C404.142 433.023 404.276 433.403 404.543 433.688C404.813 433.972 405.157 434.114 405.574 434.114C405.824 434.114 406.079 434.05 406.337 433.922C406.598 433.794 406.817 433.598 406.993 433.334C407.172 433.07 407.262 432.733 407.262 432.324ZM411.115 431.062V435H410.109V428.455H411.081V429.477H411.166C411.32 429.145 411.553 428.878 411.865 428.676C412.178 428.472 412.581 428.369 413.075 428.369C413.519 428.369 413.906 428.46 414.239 428.642C414.571 428.821 414.83 429.094 415.014 429.46C415.199 429.824 415.291 430.284 415.291 430.841V435H414.286V430.909C414.286 430.395 414.152 429.994 413.885 429.707C413.618 429.418 413.251 429.273 412.786 429.273C412.465 429.273 412.178 429.342 411.925 429.482C411.675 429.621 411.477 429.824 411.332 430.091C411.188 430.358 411.115 430.682 411.115 431.062Z" fill="#475467"/>
<path d="M460.275 426.273H461.332V432.511C461.332 433.068 461.23 433.541 461.025 433.93C460.821 434.32 460.532 434.615 460.16 434.817C459.788 435.018 459.349 435.119 458.843 435.119C458.366 435.119 457.941 435.033 457.569 434.859C457.197 434.683 456.904 434.433 456.691 434.109C456.478 433.786 456.372 433.401 456.372 432.955H457.412C457.412 433.202 457.473 433.418 457.595 433.602C457.72 433.784 457.89 433.926 458.106 434.028C458.322 434.131 458.568 434.182 458.843 434.182C459.147 434.182 459.406 434.118 459.619 433.99C459.832 433.862 459.994 433.675 460.105 433.428C460.218 433.178 460.275 432.872 460.275 432.511V426.273ZM467.439 432.324V428.455H468.444V435H467.439V433.892H467.37C467.217 434.224 466.978 434.507 466.654 434.74C466.331 434.97 465.921 435.085 465.427 435.085C465.018 435.085 464.654 434.996 464.336 434.817C464.018 434.635 463.768 434.362 463.586 433.999C463.404 433.632 463.314 433.17 463.314 432.614V428.455H464.319V432.545C464.319 433.023 464.453 433.403 464.72 433.688C464.99 433.972 465.333 434.114 465.751 434.114C466.001 434.114 466.255 434.05 466.514 433.922C466.775 433.794 466.994 433.598 467.17 433.334C467.349 433.07 467.439 432.733 467.439 432.324ZM471.292 426.273V435H470.286V426.273H471.292Z" fill="#475467"/>
<path d="M513.354 435H512.246L515.45 426.273H516.541L519.746 435H518.638L516.03 427.653H515.962L513.354 435ZM513.763 431.591H518.229V432.528H513.763V431.591ZM525.094 432.324V428.455H526.099V435H525.094V433.892H525.026C524.872 434.224 524.634 434.507 524.31 434.74C523.986 434.97 523.577 435.085 523.082 435.085C522.673 435.085 522.31 434.996 521.992 434.817C521.673 434.635 521.423 434.362 521.242 433.999C521.06 433.632 520.969 433.17 520.969 432.614V428.455H521.974V432.545C521.974 433.023 522.108 433.403 522.375 433.688C522.645 433.972 522.989 434.114 523.406 434.114C523.656 434.114 523.911 434.05 524.169 433.922C524.43 433.794 524.649 433.598 524.825 433.334C525.004 433.07 525.094 432.733 525.094 432.324ZM530.583 437.591C530.098 437.591 529.68 437.528 529.331 437.403C528.981 437.281 528.69 437.119 528.457 436.918C528.227 436.719 528.044 436.506 527.907 436.278L528.708 435.716C528.799 435.835 528.914 435.972 529.054 436.125C529.193 436.281 529.383 436.416 529.625 436.53C529.869 436.646 530.189 436.705 530.583 436.705C531.112 436.705 531.548 436.577 531.892 436.321C532.235 436.065 532.407 435.665 532.407 435.119V433.79H532.322C532.248 433.909 532.143 434.057 532.007 434.233C531.873 434.406 531.68 434.561 531.427 434.697C531.177 434.831 530.839 434.898 530.413 434.898C529.885 434.898 529.41 434.773 528.99 434.523C528.572 434.273 528.241 433.909 527.997 433.432C527.755 432.955 527.635 432.375 527.635 431.693C527.635 431.023 527.753 430.439 527.988 429.942C528.224 429.442 528.552 429.055 528.973 428.783C529.393 428.507 529.879 428.369 530.43 428.369C530.856 428.369 531.194 428.44 531.444 428.582C531.697 428.722 531.89 428.881 532.024 429.06C532.16 429.236 532.265 429.381 532.339 429.494H532.441V428.455H533.413V435.188C533.413 435.75 533.285 436.207 533.03 436.56C532.777 436.915 532.436 437.175 532.007 437.339C531.581 437.507 531.106 437.591 530.583 437.591ZM530.549 433.994C530.953 433.994 531.294 433.902 531.572 433.717C531.851 433.533 532.062 433.267 532.207 432.92C532.352 432.574 532.424 432.159 532.424 431.676C532.424 431.205 532.353 430.788 532.211 430.428C532.069 430.067 531.859 429.784 531.581 429.58C531.302 429.375 530.958 429.273 530.549 429.273C530.123 429.273 529.768 429.381 529.484 429.597C529.203 429.812 528.991 430.102 528.849 430.466C528.71 430.83 528.64 431.233 528.64 431.676C528.64 432.131 528.711 432.533 528.853 432.882C528.998 433.229 529.211 433.501 529.493 433.7C529.777 433.896 530.129 433.994 530.549 433.994Z" fill="#475467"/>
<path d="M579.582 428.455C579.531 428.023 579.324 427.688 578.96 427.449C578.597 427.21 578.151 427.091 577.622 427.091C577.236 427.091 576.898 427.153 576.608 427.278C576.321 427.403 576.097 427.575 575.935 427.794C575.776 428.013 575.696 428.261 575.696 428.54C575.696 428.773 575.752 428.973 575.862 429.141C575.976 429.305 576.121 429.443 576.297 429.554C576.473 429.662 576.658 429.751 576.851 429.822C577.044 429.891 577.222 429.946 577.384 429.989L578.27 430.227C578.497 430.287 578.75 430.369 579.028 430.474C579.31 430.58 579.578 430.723 579.834 430.905C580.092 431.084 580.305 431.314 580.473 431.595C580.641 431.876 580.725 432.222 580.725 432.631C580.725 433.102 580.601 433.528 580.354 433.909C580.109 434.29 579.752 434.592 579.28 434.817C578.811 435.041 578.242 435.153 577.571 435.153C576.946 435.153 576.405 435.053 575.948 434.851C575.493 434.649 575.135 434.368 574.874 434.007C574.615 433.646 574.469 433.227 574.435 432.75H575.526C575.554 433.08 575.665 433.352 575.858 433.568C576.054 433.781 576.301 433.94 576.6 434.045C576.901 434.148 577.225 434.199 577.571 434.199C577.975 434.199 578.337 434.134 578.658 434.003C578.979 433.869 579.233 433.685 579.421 433.449C579.608 433.21 579.702 432.932 579.702 432.614C579.702 432.324 579.621 432.088 579.459 431.906C579.297 431.724 579.084 431.577 578.82 431.463C578.555 431.349 578.27 431.25 577.963 431.165L576.889 430.858C576.207 430.662 575.668 430.382 575.27 430.018C574.872 429.655 574.673 429.179 574.673 428.591C574.673 428.102 574.805 427.676 575.07 427.312C575.337 426.946 575.695 426.662 576.144 426.46C576.595 426.256 577.1 426.153 577.656 426.153C578.219 426.153 578.719 426.254 579.156 426.456C579.594 426.655 579.94 426.928 580.196 427.274C580.455 427.621 580.591 428.014 580.605 428.455H579.582ZM585.07 435.136C584.439 435.136 583.895 434.997 583.438 434.719C582.983 434.438 582.633 434.045 582.385 433.543C582.141 433.037 582.019 432.449 582.019 431.778C582.019 431.108 582.141 430.517 582.385 430.006C582.633 429.491 582.976 429.091 583.417 428.804C583.86 428.514 584.377 428.369 584.968 428.369C585.309 428.369 585.645 428.426 585.978 428.54C586.31 428.653 586.613 428.838 586.885 429.094C587.158 429.347 587.375 429.682 587.537 430.099C587.699 430.517 587.78 431.031 587.78 431.642V432.068H582.735V431.199H586.758C586.758 430.83 586.684 430.5 586.536 430.21C586.391 429.92 586.184 429.692 585.914 429.524C585.647 429.357 585.331 429.273 584.968 429.273C584.567 429.273 584.221 429.372 583.928 429.571C583.638 429.767 583.415 430.023 583.259 430.338C583.103 430.653 583.025 430.991 583.025 431.352V431.932C583.025 432.426 583.11 432.845 583.28 433.189C583.454 433.53 583.694 433.79 584 433.969C584.307 434.145 584.664 434.233 585.07 434.233C585.334 434.233 585.573 434.196 585.786 434.122C586.002 434.045 586.188 433.932 586.344 433.781C586.5 433.628 586.621 433.437 586.706 433.21L587.678 433.483C587.576 433.812 587.404 434.102 587.162 434.352C586.921 434.599 586.623 434.793 586.267 434.932C585.912 435.068 585.513 435.136 585.07 435.136ZM589.31 437.455V428.455H590.282V429.494H590.401C590.475 429.381 590.577 429.236 590.708 429.06C590.841 428.881 591.032 428.722 591.279 428.582C591.529 428.44 591.867 428.369 592.293 428.369C592.844 428.369 593.33 428.507 593.75 428.783C594.171 429.058 594.499 429.449 594.735 429.955C594.971 430.46 595.089 431.057 595.089 431.744C595.089 432.438 594.971 433.038 594.735 433.547C594.499 434.053 594.172 434.445 593.755 434.723C593.337 434.999 592.856 435.136 592.31 435.136C591.89 435.136 591.553 435.067 591.3 434.928C591.047 434.786 590.853 434.625 590.716 434.446C590.58 434.264 590.475 434.114 590.401 433.994H590.316V437.455H589.31ZM590.299 431.727C590.299 432.222 590.371 432.658 590.516 433.036C590.661 433.411 590.873 433.705 591.151 433.918C591.429 434.128 591.77 434.233 592.174 434.233C592.594 434.233 592.945 434.122 593.226 433.901C593.51 433.676 593.723 433.375 593.866 432.997C594.01 432.616 594.083 432.193 594.083 431.727C594.083 431.267 594.012 430.852 593.87 430.483C593.731 430.111 593.519 429.817 593.235 429.601C592.954 429.382 592.6 429.273 592.174 429.273C591.765 429.273 591.421 429.376 591.142 429.584C590.864 429.788 590.654 430.075 590.512 430.445C590.37 430.811 590.299 431.239 590.299 431.727Z" fill="#475467"/>
<path d="M643.637 430.636C643.637 431.557 643.471 432.352 643.139 433.023C642.806 433.693 642.35 434.21 641.771 434.574C641.191 434.938 640.529 435.119 639.785 435.119C639.041 435.119 638.379 434.938 637.799 434.574C637.22 434.21 636.764 433.693 636.431 433.023C636.099 432.352 635.933 431.557 635.933 430.636C635.933 429.716 636.099 428.92 636.431 428.25C636.764 427.58 637.22 427.062 637.799 426.699C638.379 426.335 639.041 426.153 639.785 426.153C640.529 426.153 641.191 426.335 641.771 426.699C642.35 427.062 642.806 427.58 643.139 428.25C643.471 428.92 643.637 429.716 643.637 430.636ZM642.615 430.636C642.615 429.881 642.488 429.243 642.235 428.723C641.985 428.203 641.646 427.81 641.217 427.543C640.791 427.276 640.313 427.142 639.785 427.142C639.257 427.142 638.778 427.276 638.349 427.543C637.923 427.81 637.583 428.203 637.33 428.723C637.08 429.243 636.955 429.881 636.955 430.636C636.955 431.392 637.08 432.03 637.33 432.55C637.583 433.07 637.923 433.463 638.349 433.73C638.778 433.997 639.257 434.131 639.785 434.131C640.313 434.131 640.791 433.997 641.217 433.73C641.646 433.463 641.985 433.07 642.235 432.55C642.488 432.03 642.615 431.392 642.615 430.636ZM647.937 435.136C647.323 435.136 646.795 434.991 646.352 434.702C645.909 434.412 645.568 434.013 645.329 433.504C645.09 432.996 644.971 432.415 644.971 431.761C644.971 431.097 645.093 430.51 645.338 430.001C645.585 429.49 645.928 429.091 646.369 428.804C646.812 428.514 647.329 428.369 647.92 428.369C648.38 428.369 648.795 428.455 649.164 428.625C649.534 428.795 649.836 429.034 650.072 429.341C650.308 429.648 650.454 430.006 650.511 430.415H649.505C649.428 430.116 649.258 429.852 648.994 429.622C648.732 429.389 648.38 429.273 647.937 429.273C647.545 429.273 647.201 429.375 646.906 429.58C646.613 429.781 646.384 430.067 646.22 430.436C646.058 430.803 645.977 431.233 645.977 431.727C645.977 432.233 646.056 432.673 646.215 433.048C646.377 433.423 646.605 433.714 646.897 433.922C647.193 434.129 647.539 434.233 647.937 434.233C648.198 434.233 648.436 434.188 648.649 434.097C648.862 434.006 649.042 433.875 649.19 433.705C649.338 433.534 649.443 433.33 649.505 433.091H650.511C650.454 433.477 650.313 433.825 650.089 434.135C649.867 434.442 649.573 434.686 649.207 434.868C648.843 435.047 648.42 435.136 647.937 435.136ZM654.828 428.455V429.307H651.436V428.455H654.828ZM652.424 426.886H653.43V433.125C653.43 433.409 653.471 433.622 653.553 433.764C653.639 433.903 653.747 433.997 653.877 434.045C654.011 434.091 654.151 434.114 654.299 434.114C654.41 434.114 654.501 434.108 654.572 434.097C654.643 434.082 654.7 434.071 654.742 434.062L654.947 434.966C654.879 434.991 654.784 435.017 654.661 435.043C654.539 435.071 654.384 435.085 654.197 435.085C653.913 435.085 653.634 435.024 653.362 434.902C653.092 434.78 652.867 434.594 652.688 434.344C652.512 434.094 652.424 433.778 652.424 433.398V426.886Z" fill="#475467"/>
<path d="M703.066 426.273V435H702.043L697.288 428.148H697.203V435H696.146V426.273H697.168L701.941 433.142H702.026V426.273H703.066ZM707.704 435.136C707.113 435.136 706.594 434.996 706.148 434.714C705.705 434.433 705.358 434.04 705.108 433.534C704.861 433.028 704.738 432.437 704.738 431.761C704.738 431.08 704.861 430.484 705.108 429.976C705.358 429.467 705.705 429.072 706.148 428.791C706.594 428.51 707.113 428.369 707.704 428.369C708.294 428.369 708.812 428.51 709.255 428.791C709.701 429.072 710.047 429.467 710.294 429.976C710.544 430.484 710.669 431.08 710.669 431.761C710.669 432.437 710.544 433.028 710.294 433.534C710.047 434.04 709.701 434.433 709.255 434.714C708.812 434.996 708.294 435.136 707.704 435.136ZM707.704 434.233C708.152 434.233 708.522 434.118 708.812 433.888C709.101 433.658 709.316 433.355 709.455 432.98C709.594 432.605 709.664 432.199 709.664 431.761C709.664 431.324 709.594 430.916 709.455 430.538C709.316 430.161 709.101 429.855 708.812 429.622C708.522 429.389 708.152 429.273 707.704 429.273C707.255 429.273 706.885 429.389 706.596 429.622C706.306 429.855 706.091 430.161 705.952 430.538C705.813 430.916 705.743 431.324 705.743 431.761C705.743 432.199 705.813 432.605 705.952 432.98C706.091 433.355 706.306 433.658 706.596 433.888C706.885 434.118 707.255 434.233 707.704 434.233ZM717.323 428.455L714.902 435H713.879L711.459 428.455H712.55L714.357 433.67H714.425L716.232 428.455H717.323Z" fill="#475467"/>
<path d="M761.094 435H758.401V426.273H761.213C762.06 426.273 762.784 426.447 763.386 426.797C763.989 427.143 764.45 427.642 764.771 428.293C765.092 428.94 765.253 429.716 765.253 430.619C765.253 431.528 765.091 432.311 764.767 432.967C764.443 433.621 763.972 434.124 763.352 434.476C762.733 434.825 761.98 435 761.094 435ZM759.457 434.062H761.026C761.747 434.062 762.345 433.923 762.82 433.645C763.294 433.366 763.648 432.97 763.881 432.456C764.114 431.942 764.23 431.33 764.23 430.619C764.23 429.915 764.115 429.308 763.885 428.8C763.655 428.288 763.311 427.896 762.854 427.624C762.396 427.348 761.827 427.21 761.145 427.21H759.457V434.062ZM769.634 435.136C769.003 435.136 768.459 434.997 768.001 434.719C767.547 434.438 767.196 434.045 766.949 433.543C766.705 433.037 766.582 432.449 766.582 431.778C766.582 431.108 766.705 430.517 766.949 430.006C767.196 429.491 767.54 429.091 767.98 428.804C768.423 428.514 768.94 428.369 769.531 428.369C769.872 428.369 770.209 428.426 770.541 428.54C770.874 428.653 771.176 428.838 771.449 429.094C771.722 429.347 771.939 429.682 772.101 430.099C772.263 430.517 772.344 431.031 772.344 431.642V432.068H767.298V431.199H771.321C771.321 430.83 771.247 430.5 771.099 430.21C770.955 429.92 770.747 429.692 770.477 429.524C770.21 429.357 769.895 429.273 769.531 429.273C769.131 429.273 768.784 429.372 768.491 429.571C768.202 429.767 767.979 430.023 767.822 430.338C767.666 430.653 767.588 430.991 767.588 431.352V431.932C767.588 432.426 767.673 432.845 767.844 433.189C768.017 433.53 768.257 433.79 768.564 433.969C768.871 434.145 769.227 434.233 769.634 434.233C769.898 434.233 770.136 434.196 770.349 434.122C770.565 434.045 770.751 433.932 770.908 433.781C771.064 433.628 771.185 433.437 771.27 433.21L772.241 433.483C772.139 433.812 771.967 434.102 771.726 434.352C771.484 434.599 771.186 434.793 770.831 434.932C770.476 435.068 770.077 435.136 769.634 435.136ZM776.533 435.136C775.919 435.136 775.391 434.991 774.947 434.702C774.504 434.412 774.163 434.013 773.925 433.504C773.686 432.996 773.567 432.415 773.567 431.761C773.567 431.097 773.689 430.51 773.933 430.001C774.18 429.49 774.524 429.091 774.964 428.804C775.408 428.514 775.925 428.369 776.516 428.369C776.976 428.369 777.391 428.455 777.76 428.625C778.129 428.795 778.432 429.034 778.668 429.341C778.903 429.648 779.05 430.006 779.107 430.415H778.101C778.024 430.116 777.854 429.852 777.589 429.622C777.328 429.389 776.976 429.273 776.533 429.273C776.141 429.273 775.797 429.375 775.501 429.58C775.209 429.781 774.98 430.067 774.815 430.436C774.653 430.803 774.572 431.233 774.572 431.727C774.572 432.233 774.652 432.673 774.811 433.048C774.973 433.423 775.2 433.714 775.493 433.922C775.788 434.129 776.135 434.233 776.533 434.233C776.794 434.233 777.031 434.188 777.244 434.097C777.457 434.006 777.638 433.875 777.786 433.705C777.933 433.534 778.038 433.33 778.101 433.091H779.107C779.05 433.477 778.909 433.825 778.685 434.135C778.463 434.442 778.169 434.686 777.803 434.868C777.439 435.047 777.016 435.136 776.533 435.136Z" fill="#475467"/>
<g style="mix-blend-mode:multiply" opacity="0.1">
<path d="M84.6799 218.539L68 224.292V416H804V154.417L788.363 163.97H771.683L763.864 172.916H753.439C750.659 174.407 744.891 177.389 744.057 177.389C743.223 177.389 737.802 179.178 735.195 180.073L712.782 182.756L699.751 186.335L678.901 182.756L667.955 180.073L652.317 186.335H636.159L622.606 180.073C617.394 179.178 606.76 177.389 605.926 177.389C605.092 177.389 598.281 175.6 594.98 174.705H586.64L566.833 177.389L549.632 180.073L541.813 186.335L518.357 189.018L506.368 191.702L492.816 196.175L479.785 206.91H474.051L458.414 204.226L443.297 196.175L430.266 191.702H422.448L408.895 189.018L389.609 191.702H371.365L353.122 196.175L334.878 201.542L321.326 206.91L306.731 209.594L286.924 206.91L271.286 209.594L255.649 212.277L241.054 209.594L221.246 215.856L204.567 212.277L187.887 215.856H171.728L154.527 218.539H136.805L119.082 221.223L101.881 215.856L84.6799 218.539Z" fill="url(#paint0_linear_364_85787)"/>
</g>
<path d="M68 224.292L84.6799 218.539L101.881 215.856L119.082 221.223L136.805 218.539H154.527L171.728 215.856H187.887L204.567 212.277L221.246 215.856L241.054 209.594L255.649 212.277L271.286 209.594L286.924 206.91L306.731 209.594L321.326 206.91L334.878 201.542L353.122 196.175L371.365 191.702H389.609L408.895 189.018L422.448 191.702H430.266L443.297 196.175L458.414 204.226L474.051 206.91H479.785L492.816 196.175L506.368 191.702L518.357 189.018L541.813 186.335L549.632 180.073L566.833 177.389L586.64 174.705H594.98C598.281 175.6 605.092 177.389 605.926 177.389C606.76 177.389 617.394 179.178 622.606 180.073L636.159 186.335H652.317L667.955 180.073L678.901 182.756L699.751 186.335L712.782 182.756L735.195 180.073C737.802 179.178 743.223 177.389 744.057 177.389C744.891 177.389 750.659 174.407 753.439 172.916H763.864L771.683 163.97H788.363L804 154.417" stroke="black" stroke-width="2" stroke-linecap="round" stroke-linejoin="round"/>
<path d="M68 293.884L84.6799 290.22L101.881 288.511L119.082 291.93L136.805 290.22H154.527L171.728 288.511H187.887L204.567 286.231L221.246 288.511L241.054 284.522L255.649 286.231L271.286 284.522L286.924 282.812L306.731 284.522L321.326 282.812L334.878 279.393L353.122 275.974L371.365 273.125H389.609L408.895 271.416L422.448 273.125H430.266L443.297 275.974L458.414 281.103L474.051 282.812H479.785L492.816 275.974L506.368 273.125L518.357 271.416L541.813 269.706L549.632 265.718L566.833 264.008L586.64 262.299H594.98C598.281 262.868 605.092 264.008 605.926 264.008C606.76 264.008 617.394 265.148 622.606 265.718L636.159 269.706H652.317L667.955 265.718L678.901 267.427L699.751 269.706L712.782 267.427L735.195 265.718C737.802 265.148 743.223 264.008 744.057 264.008C744.891 264.008 750.659 262.109 753.439 261.159H763.864L771.683 255.461H788.363L804 249.375" stroke="#F69298" stroke-width="2" stroke-linecap="round" stroke-linejoin="round"/>
<path d="M68 381.958L84.6799 372.224L101.881 367.682L119.082 376.765L136.805 372.224H154.527L171.728 367.682H187.887L204.567 361.626L221.246 367.682L241.054 357.085L255.649 361.626L271.286 357.085L286.924 352.543L306.731 357.085L321.326 352.543L334.878 343.46L353.122 334.376L371.365 326.807H389.609L408.895 322.265L422.448 326.807H430.266L443.297 334.376L458.414 348.001L474.051 352.543H479.785L492.816 334.376L506.368 326.807L518.357 322.265L541.813 317.723L549.632 307.126L566.833 302.585L586.64 298.043H594.98C598.281 299.557 605.092 302.585 605.926 302.585C606.76 302.585 617.394 305.612 622.606 307.126L636.159 317.723H652.317L667.955 307.126L678.901 311.668L699.751 317.723L712.782 311.668L735.195 307.126C737.802 305.612 743.223 302.585 744.057 302.585C744.891 302.585 750.659 297.538 753.439 295.015H763.864L771.683 279.876H788.363L804 263.708" stroke="#389E54" stroke-width="2" stroke-linecap="round" stroke-linejoin="round"/>
</g>
<defs>
<filter id="filter0_d_364_85787" x="0" y="0" width="872" height="532" filterUnits="userSpaceOnUse" color-interpolation-filters="sRGB">
<feFlood flood-opacity="0" result="BackgroundImageFix"/>
<feColorMatrix in="SourceAlpha" type="matrix" values="0 0 0 0 0 0 0 0 0 0 0 0 0 0 0 0 0 0 127 0" result="hardAlpha"/>
<feMorphology radius="12" operator="erode" in="SourceAlpha" result="effect1_dropShadow_364_85787"/>
<feOffset dy="24"/>
<feGaussianBlur stdDeviation="24"/>
<feColorMatrix type="matrix" values="0 0 0 0 0.0625882 0 0 0 0 0.0926346 0 0 0 0 0.15702 0 0 0 0.18 0"/>
<feBlend mode="normal" in2="BackgroundImageFix" result="effect1_dropShadow_364_85787"/>
<feBlend mode="normal" in="SourceGraphic" in2="effect1_dropShadow_364_85787" result="shape"/>
</filter>
<linearGradient id="paint0_linear_364_85787" x1="436" y1="154.417" x2="436" y2="404.354" gradientUnits="userSpaceOnUse">
<stop stop-color="#222222"/>
<stop offset="1" stop-color="#CECBD2" stop-opacity="0"/>
</linearGradient>
</defs>
</svg>
